<?xml version="1.0" encoding="UTF-8" ?>
<!DOCTYPE svg PUBLIC "-//W3C//DTD SVG 1.1//EN" "http://www.w3.org/Graphics/SVG/1.1/DTD/svg11.dtd">
<svg width="21pt" height="20pt" viewBox="0 0 21 20" version="1.1" xmlns="http://www.w3.org/2000/svg">
<g id="#158398c7">
<path fill="#158398" opacity="0.78" d=" M 8.17 0.00 L 12.97 0.00 C 13.91 0.43 15.78 1.29 16.72 1.72 C 13.96 3.37 10.82 0.62 7.93 1.95 C 2.56 3.22 -0.19 10.24 3.15 14.71 C 6.50 19.91 15.20 19.68 18.25 14.30 C 20.18 11.37 19.22 7.84 17.97 4.87 C 15.41 8.75 13.04 12.75 10.52 16.65 C 8.47 14.05 6.53 11.35 5.12 8.34 C 7.56 9.08 9.04 11.15 10.54 13.04 C 12.84 9.39 15.09 5.71 17.42 2.09 C 18.86 3.75 20.23 5.51 21.00 7.59 L 21.00 12.53 C 19.83 16.11 16.95 18.90 13.35 20.00 L 7.82 20.00 C 4.07 18.93 1.19 15.95 0.00 12.26 L 0.00 8.00 C 1.09 4.08 4.22 0.99 8.17 0.00 Z" />
</g>
</svg>
