<?xml version="1.0" encoding="UTF-8" ?>
<!DOCTYPE svg PUBLIC "-//W3C//DTD SVG 1.1//EN" "http://www.w3.org/Graphics/SVG/1.1/DTD/svg11.dtd">
<svg width="21pt" height="20pt" viewBox="0 0 21 20" version="1.1" xmlns="http://www.w3.org/2000/svg">
<g id="#c74343c7">
<path fill="#c74343" opacity="0.78" d=" M 8.18 0.00 L 13.09 0.00 C 14.03 0.57 15.92 1.72 16.86 2.29 C 13.40 2.46 9.79 0.68 6.52 2.48 C 1.98 4.47 0.18 10.76 3.19 14.76 C 6.55 19.92 15.24 19.66 18.25 14.28 C 20.18 11.37 19.25 7.84 17.96 4.89 C 15.40 8.76 13.05 12.76 10.52 16.64 C 8.51 14.05 6.55 11.38 5.03 8.46 C 7.65 8.90 9.01 11.20 10.53 13.08 C 12.84 9.37 15.08 5.60 17.63 2.04 C 18.94 3.79 20.19 5.60 21.00 7.64 L 21.00 12.50 C 19.85 16.11 16.94 18.93 13.31 20.00 L 7.82 20.00 C 4.03 18.91 1.10 15.92 0.00 12.15 L 0.00 8.02 C 1.08 4.09 4.22 0.98 8.18 0.00 Z" />
</g>
</svg>
